<svg version="1.1" xmlns="http://www.w3.org/2000/svg" xmlns:xlink="http://www.w3.org/1999/xlink" width="80.87386" height="82.63685" viewBox="0,0,80.87386,82.63685"><g transform="translate(-204.87266,-135.62819)"><g data-paper-data="{&quot;isPaintingLayer&quot;:true}" fill-rule="nonzero" stroke-miterlimit="10" stroke-dasharray="" stroke-dashoffset="0" style="mix-blend-mode: normal"><g><path d="M238.9401,204.40961c0.88102,0.45144 2.58296,1.16461 0.52141,4.87624c-2.05965,3.71102 -8.99812,5.00236 -9.8209,5.05748c-3.03939,0.34948 -6.93223,0.65891 -11.2863,-0.45899c-12.5556,-3.0957 -13.75099,-16.58042 -10.02664,-19.04196c3.72466,-2.4606 6.1425,5.69073 12.04202,10.30193c2.66782,2.08287 5.60266,2.71271 8.09855,2.95872c3.5059,0.44573 9.62213,-4.04778 10.47186,-3.69342z" fill="#faa51f" stroke="none" stroke-width="1" stroke-linecap="butt" stroke-linejoin="miter"/><path d="M213.54962,197.67783c1.90515,2.3277 5.43903,6.44181 5.43903,6.44181c0,0 -4.20312,-0.32707 -6.18331,1.67829c-1.98081,2.00345 0.63729,5.88747 -1.02958,4.9539c-1.34723,-1.2457 -3.4778,-3.29164 -4.80317,-6.75083c-1.22955,-3.49113 -0.42227,-8.47949 1.51506,-9.31421c2.09387,-0.67506 3.40729,0.79168 5.06198,2.99104z" fill="#ffffff" stroke="none" stroke-width="1" stroke-linecap="butt" stroke-linejoin="miter"/><path d="M238.9401,204.40961c0.88102,0.45144 2.58296,1.16461 0.52141,4.87624c-2.05965,3.71102 -8.99812,5.00236 -9.8209,5.05748c-3.03939,0.34948 -6.93223,0.65891 -11.2863,-0.45899c-12.5556,-3.0957 -13.75099,-16.58042 -10.02664,-19.04196c3.72466,-2.4606 6.1425,5.69073 12.04202,10.30193c2.66782,2.08287 5.60266,2.71271 8.09855,2.95872c3.5059,0.44573 9.62213,-4.04778 10.47186,-3.69342z" fill="none" stroke="#8e5322" stroke-width="1.4" stroke-linecap="round" stroke-linejoin="round"/></g><path d="M239.29901,200.599c0,0 -1.5,9.1 -1.2,13.3c0.2,2.101 -0.599,3.201 -2.699,3.601c-2.2,0.4 -9.8,0.6 -9.9,-1.9c-0.4,-7.599 5.2,-2.9 5.8,-6.7c1.3,-8.7 -1.3,-14.2 -1.3,-14.2" fill="#faa51f" stroke="#8e5322" stroke-width="1.4" stroke-linecap="round" stroke-linejoin="round"/><path d="M247.10501,189.171l4.206,0.663c3.953,4.066 6.177,13.053 1.464,15.92c-0.342,0.209 -6.795,-0.998 -7.212,-0.858" fill="#faa51f" stroke="#8e5322" stroke-width="1.4" stroke-linecap="round" stroke-linejoin="round"/><path d="M255.23001,201.101c-1.986,8.479 -5.61,11.841 -9.298,10.28c-1.573,-0.65 -2.562,-5.247 1.495,-9.507" fill="#faa51f" stroke="#8e5322" stroke-width="1.4" stroke-linecap="round" stroke-linejoin="round"/><path d="M249.40001,194.7c0,0 -1.7,5.5 -0.9,14.301c0.3,3.8 7.4,-0.5 6.9,6.899c-0.2,2.101 -9.4,1.9 -11.5,1.101c-1.9,-0.7 -2.4,-1.4 -2.101,-3.4c1.101,-7.3 -2.6,-15.7 -2.6,-15.7" fill="#faa51f" stroke="#8e5322" stroke-width="1.4" stroke-linecap="round" stroke-linejoin="round"/><path d="M242.06593,212.73622c5.23349,-6.96227 12.65225,-11.32827 15.40094,-8.41471c1.17898,1.22736 0.9087,5.5339 -4.51978,7.7983" data-paper-data="{&quot;index&quot;:null}" fill="#faa51f" stroke="#8e5322" stroke-width="1.4" stroke-linecap="round" stroke-linejoin="round"/><path d="M250.20001,196.051c0,6.7 1.7,16.5 -10.2,16.5c-11.9,0 -10.8,-9 -10.8,-15.7c0,-6.7 4.1,-8.5 10.8,-8.5c6.7,0 10.2,1 10.2,7.7z" fill="#faa51f" stroke="#8e5322" stroke-width="1.4" stroke-linecap="round" stroke-linejoin="round"/><path d="M247.60001,198.95c0,4.2 0.9,10.5 -5.5,10.5c-6.399,0 -5.899,-5.699 -5.899,-9.899c0,-4.2 2.2,-5.4 5.899,-5.4c3.7,-0.001 5.5,0.6 5.5,4.799z" fill="#ffffff" stroke="none" stroke-width="1" stroke-linecap="butt" stroke-linejoin="miter"/><path d="M228.90001,210.7c0,0 1.6,-0.199 3,0.2" fill="#faa51f" stroke="#8e5322" stroke-width="1.4" stroke-linecap="round" stroke-linejoin="round"/><path d="M230.95001,204.101c-0.166,-0.093 -7.769,1.95 -7.91,1.83c-3.335,-2.839 0.335,-12.898 6.86,-18.08l7.899,1.4" fill="#faa51f" stroke="#8e5322" stroke-width="1.4" stroke-linecap="round" stroke-linejoin="round"/><path d="M232.30001,195.65c-1.165,3.135 -3.082,6.935 -3.082,6.935" fill="#faa51f" stroke="#8e5322" stroke-width="1.4" stroke-linecap="round" stroke-linejoin="round"/><path d="M229.56301,202.751l-1.199,-0.301" fill="none" stroke="#8e5322" stroke-width="1.4" stroke-linecap="round" stroke-linejoin="round"/><path d="M255.58478,149.1112l8.73045,-4.96178l-0.10999,11.54417c0,0 4.8419,6.01376 5.87529,9.58807c1.66552,5.91072 0.67899,10.09616 0.67899,10.09616c0,0 6.14999,3.7698 5.92661,9.39476c-0.22337,5.62496 -7.02843,14.70412 -25.54756,13.60623c-18.5201,-1.09814 -31.4171,-9.51635 -35.29925,-21.99574c-3.81151,-12.35769 9.96392,-22.4134 9.18087,-21.79048l2.47822,-18.2644l10.12963,11.10813c0,0 4.58853,-0.56288 9.09167,0.40194c1.66945,0.33097 4.6202,1.30526 6.04671,1.77969z" fill="#faa51f" stroke="none" stroke-width="1" stroke-linecap="butt" stroke-linejoin="miter"/><path d="M270.24723,175.76223c0,0 5.98457,3.21013 5.7612,8.83508c0.06696,5.70048 -7.29456,14.53156 -24.72002,13.20155c-3.95061,-0.30444 -7.51411,-0.50818 -12.83694,-1.8929c-8.25112,-2.04422 -15.91743,-9.51396 -12.44536,-20.08016c1.99746,-6.09339 9.71162,-3.56993 9.71162,-3.56993l7.32448,0.04554c0,0 6.46872,3.33504 10.75976,3.52242c4.2913,0.18642 5.12214,-3.00728 5.12214,-3.00728l9.17138,-0.30166l1.81915,2.53982z" fill="#ffffff" stroke="none" stroke-width="1" stroke-linecap="butt" stroke-linejoin="miter"/><path d="M285.04652,180.43885c0,0 -2.14388,1.09553 -4.88769,1.31169c-2.33152,0.22009 -6.76505,-0.20998 -6.76505,-0.20998" fill="none" stroke="#8e5322" stroke-width="1.4" stroke-linecap="round" stroke-linejoin="round"/><path d="M281.64509,191.12676c0,0 -1.79238,-0.25962 -4.32962,-1.2307c-2.65873,-0.89729 -4.89778,-2.61741 -4.89778,-2.61741" fill="none" stroke="#8e5322" stroke-width="1.4" stroke-linecap="round" stroke-linejoin="round"/><path d="M255.58478,149.1112l8.73045,-4.96178l-0.10999,11.54417c0,0 4.8419,6.01376 5.87529,9.58807c1.66552,5.91072 0.67899,10.09616 0.67899,10.09616c0,0 6.14999,3.7698 5.92661,9.39476c-0.22337,5.62496 -7.02843,14.70412 -25.54756,13.60623c-18.5201,-1.09814 -31.4171,-9.51635 -35.29925,-21.99574c-3.81151,-12.35769 9.96392,-22.4134 9.18087,-21.79048l2.47822,-18.2644l10.12963,11.10813c0,0 4.58853,-0.56288 9.09167,0.40194c1.66945,0.33097 4.6202,1.30526 6.04671,1.77969z" fill="none" stroke="#8e5322" stroke-width="1.4" stroke-linecap="round" stroke-linejoin="round"/><path d="M216.39063,171.87671c0,0 -3.51314,-0.39729 -5.28034,-0.75369c-1.76719,-0.3564 -5.53763,-1.75059 -5.53763,-1.75059" fill="none" stroke="#8e5322" stroke-width="1.4" stroke-linecap="round" stroke-linejoin="round"/><path d="M207.21611,159.88147c0,0 2.02868,0.94003 5.44639,3.69009c3.08024,2.45457 4.87814,4.67888 4.87814,4.67888" fill="none" stroke="#8e5322" stroke-width="1.4" stroke-linecap="round" stroke-linejoin="round"/><path d="M267.92597,164.82551c1.62721,4.86643 0.46418,9.7303 -2.57589,10.69602c-3.06621,1.06224 -6.89253,-2.10307 -8.49456,-7.06628c-1.62817,-4.86669 -0.46515,-9.73055 2.57588,-10.69601c3.04103,-0.96546 6.86737,2.19984 8.49457,7.06627z" fill="#ffffff" stroke="#8e5322" stroke-width="1.4" stroke-linecap="round" stroke-linejoin="round"/><path d="M266.92308,168.2834c0.03954,1.04357 -0.69612,1.88547 -1.73944,1.92404c-0.94679,0.06472 -1.76327,-0.7687 -1.77691,-1.90783c-0.03857,-1.04332 0.69709,-1.88522 1.74041,-1.92379c1.01718,0.05796 1.73738,0.86426 1.77595,1.90758" fill="#414142" stroke="none" stroke-width="1" stroke-linecap="butt" stroke-linejoin="miter"/><path d="M244.69306,161.98367c1.62721,4.86643 0.02768,9.82341 -3.59821,11.05107c-3.62563,1.2267 -7.91461,-1.74899 -9.51542,-6.71292c-1.62817,-4.86669 -0.02768,-9.8234 3.59699,-11.05035c3.6002,-1.12895 7.88918,1.84672 9.51664,6.71219z" fill="#ffffff" stroke="#8e5322" stroke-width="1.4" stroke-linecap="round" stroke-linejoin="round"/><path d="M243.42058,165.68348c-0.25177,0.96779 -1.25233,1.63641 -2.12335,1.40982c-0.96779,-0.25177 -1.44383,-1.20223 -1.16714,-2.26583c0.25177,-0.96779 1.25259,-1.63738 2.1236,-1.41079c0.87101,0.22659 1.44407,1.20126 1.16688,2.2668" fill="#414142" stroke="none" stroke-width="1" stroke-linecap="butt" stroke-linejoin="miter"/><path d="M252.84598,174.33518c1.69559,0.23444 4.2488,-0.44461 4.06103,1.46875c-0.20166,0.7752 -2.58096,3.56607 -4.34694,3.20895c-1.961,-0.40579 -4.71884,-3.70645 -4.24441,-5.13295c0.47443,-1.4265 3.02828,0.27115 4.53032,0.45525z" fill="#5f4b43" stroke="#8e5322" stroke-width="1.4" stroke-linecap="round" stroke-linejoin="round"/><path d="M247.50457,190.09712c-5.50228,-0.29376 -7.34243,-3.15006 -7.34243,-3.15006" fill="#ffffff" stroke="#8e5322" stroke-width="1.4" stroke-linecap="round" stroke-linejoin="round"/><path d="M225.56593,212.48622c5.23349,-6.96227 12.65225,-11.32827 15.40094,-8.41471c1.17898,1.22736 0.9087,5.5339 -4.51978,7.7983" data-paper-data="{&quot;index&quot;:null}" fill="#faa51f" stroke="#8e5322" stroke-width="1.4" stroke-linecap="round" stroke-linejoin="round"/><path d="M229.83201,201.775c5.159,2.825 4.973,7.136 3.671,8.232c-3.041,2.607 -7.513,0.507 -11.982,-6.969" fill="#faa51f" stroke="#8e5322" stroke-width="1.4" stroke-linecap="round" stroke-linejoin="round"/></g></g></svg>