<svg version="1.1" xmlns="http://www.w3.org/2000/svg" xmlns:xlink="http://www.w3.org/1999/xlink" width="81.316" height="97.56855" viewBox="0,0,81.316,97.56855"><g transform="translate(-199.326,-121.21572)"><g data-paper-data="{&quot;isPaintingLayer&quot;:true}" fill-rule="nonzero" stroke-miterlimit="10" stroke-dasharray="" stroke-dashoffset="0" style="mix-blend-mode: normal"><path d="M249.989,182.99372c-0.117,0.951 -7.529,8.682 -7.686,9.507c-1.616,8.557 -4.196,9.58 -5.668,9.094c-3.433,-1.096 -4.243,-5.182 -1.436,-11.612c2.097,-4.801 10.833,-12.297 11.236,-13.075" fill="#faa51f" stroke="#8e5322" stroke-width="1.4" stroke-linecap="round" stroke-linejoin="round"/><path d="M266.65,185.09072c0.815,-2.372 1.465,-5.302 0.685,-8.595c-1.73,-7.282 -8.134,-12.879 -4.345,-15.24c3.792,-2.358 15.55,4.349 13.13,17.053c-0.797,4.424 -2.701,7.834 -4.284,10.451c-0.394,0.724 -4.463,6.491 -8.692,6.818c-4.233,0.326 -4.172,-1.518 -4.215,-2.505c0.028,-0.922 6.662,-4.609 7.721,-7.982z" fill="#faa51f" stroke="none" stroke-width="1" stroke-linecap="butt" stroke-linejoin="miter"/><path d="M262.782,161.33572c1.566,-1.413 6.439,-0.065 9.101,2.507c2.591,2.647 3.562,5.436 4.134,7.181c0.152,1.905 -2.287,-2.095 -4.933,-1.13c-2.648,0.964 -4.104,4.92 -4.104,4.92c0,0 -2.268,-4.926 -3.589,-7.627c-1.309,-2.423 -2.097,-4.23 -0.609,-5.851z" fill="#ffffff" stroke="none" stroke-width="1" stroke-linecap="butt" stroke-linejoin="miter"/><path d="M266.65,185.09072c0.815,-2.372 1.465,-5.302 0.685,-8.595c-1.73,-7.282 -8.134,-12.879 -4.345,-15.24c3.792,-2.358 15.55,4.349 13.13,17.053c-0.797,4.424 -2.701,7.834 -4.284,10.451c-0.394,0.724 -4.463,6.491 -8.692,6.818c-4.233,0.326 -4.172,-1.518 -4.215,-2.505c0.028,-0.922 6.662,-4.609 7.721,-7.982z" fill="none" stroke="#8e5322" stroke-width="1.4" stroke-linecap="round" stroke-linejoin="round"/><path d="M269.208,157.40172c1.282,1.022 2.362,2.631 2.936,4.592c0.576,1.957 0.537,3.898 0.012,5.447c-0.525,1.551 -1.541,2.711 -2.916,3.117c-1.377,0.404 -2.86,-0.026 -4.139,-1.047c-1.28,-1.02 -2.362,-2.631 -2.936,-4.588c-0.574,-1.961 -0.537,-3.9 -0.01,-5.451c0.523,-1.551 1.539,-2.711 2.916,-3.115c1.377,-0.405 2.857,0.025 4.137,1.045z" fill="#fefbdf" stroke="#70715e" stroke-width="1.4" stroke-linecap="round" stroke-linejoin="round"/><path d="M268.236,160.11872c0.696,0.569 1.286,1.465 1.604,2.549c0.318,1.086 0.307,2.158 0.029,3.014c-0.278,0.856 -0.821,1.492 -1.561,1.711c-0.74,0.216 -1.543,-0.028 -2.238,-0.598c-0.696,-0.567 -1.284,-1.463 -1.604,-2.549c-0.318,-1.084 -0.304,-2.158 -0.029,-3.012c0.278,-0.856 0.821,-1.494 1.563,-1.711c0.741,-0.217 1.541,0.025 2.236,0.596z" fill="#fefbdf" stroke="#70715e" stroke-width="1.4" stroke-linecap="round" stroke-linejoin="round"/><path d="M259.535,190.90372c0,0 -5.353,11.975 -3.947,19.221c0.383,1.987 0.906,1.952 -0.488,3.422c-1.53,1.648 -9.692,5.9 -10.799,4.103c-3.723,-6.415 5.547,-5.7 4.134,-9.242c0.754,-5.38 0.389,-10.985 -0.561,-13.091c-1.025,-2.272 -2.933,-4.342 -2.933,-4.342" fill="#faa51f" stroke="#8e5322" stroke-width="1.4" stroke-linecap="round" stroke-linejoin="round"/><path d="M246.436,210.90872c0,0 1.079,-0.755 2.555,-1.15" fill="#faa51f" stroke="#8e5322" stroke-width="1.4" stroke-linecap="round" stroke-linejoin="round"/><path d="M251.672,173.44072c6.43,-1.887 10.869,-1.315 12.756,5.115c1.887,6.427 5.479,14.755 -5.941,18.105c-11.418,3.352 -12.547,-6.531 -14.434,-12.959c-1.887,-6.429 1.189,-8.374 7.619,-10.261z" fill="#faa51f" stroke="#8e5322" stroke-width="1.4" stroke-linecap="round" stroke-linejoin="round"/><path d="M267.174,190.41572c0,0 -0.855,7.681 -0.6,9.098c6.692,3.321 7.274,2.054 6.351,6.637c-0.425,2.104 -1.386,6.852 -3.884,6.712c-8.03,-1.037 1.192,-6.463 -9.106,-8.632c-2.044,-1.153 -1.083,-5.549 -2.491,-11.645" fill="#faa51f" stroke="#8e5322" stroke-width="1.4" stroke-linecap="round" stroke-linejoin="round"/><path d="M267.402,206.56472c-0.625,-0.108 -2.062,-0.96 -2.632,-1.08" fill="#faa51f" stroke="#8e5322" stroke-width="1.4" stroke-linecap="round" stroke-linejoin="round"/><path d="M245.821,179.96772c3.55,-1.041 5.998,-0.509 7.182,3.52c1.183,4.031 1.151,5.578 -2.944,8.869c-1.942,1.56 -5.617,-2.026 -6.801,-6.057c-1.181,-4.029 -0.988,-5.291 2.563,-6.332z" fill="#ffffff" stroke="none" stroke-width="1" stroke-linecap="butt" stroke-linejoin="miter"/><path d="M236.812,130.75472c1.486,-0.226 4.557,-0.69 6.258,-0.733c4.603,-0.193 9.03,1.137 9.03,1.137l11.857,-9.243l-0.636,18.42c-0.666,-0.744 11.217,11.488 5.376,23.029c-5.933,11.646 -20.061,17.769 -38.502,15.728c-18.439,-2.041 -23.617,-12.135 -22.889,-17.717c0.728,-5.582 7.425,-8.263 7.425,-8.263c0,0 -0.266,-4.294 2.372,-9.835c1.619,-3.352 7.406,-8.462 7.406,-8.462l1.84,-11.398l7.769,6.362z" fill="#faa51f" stroke="none" stroke-width="1" stroke-linecap="butt" stroke-linejoin="miter"/><path d="M215.619,152.93772l2.222,-2.197l8.99,1.843c0,0 0.28,3.287 4.54,3.829c4.262,0.539 11.2,-1.658 11.2,-1.658l7.229,1.19c0,0 8.028,-1.188 8.972,5.155c1.639,11 -7.177,17.07 -15.654,17.694c-5.48,0.467 -9.026,0.066 -12.973,-0.299c-17.4,-1.626 -23.165,-11.572 -22.139,-17.18c0.729,-5.582 7.167,-7.738 7.167,-7.738z" fill="#ffffff" stroke="none" stroke-width="1" stroke-linecap="butt" stroke-linejoin="miter"/><path d="M211.097,158.74272c0,0 -4.411,-0.623 -6.626,-1.381c-2.615,-0.854 -4.445,-2.418 -4.445,-2.418" fill="none" stroke="#8e5322" stroke-width="1.4" stroke-linecap="round" stroke-linejoin="round"/><path d="M211.091,164.56372c0,0 -2.618,1.059 -5.423,1.211c-2.704,0.251 -4.498,0.022 -4.498,0.022" fill="none" stroke="#8e5322" stroke-width="1.4" stroke-linecap="round" stroke-linejoin="round"/><path d="M254.264,129.46772l-4.874,4.028" fill="none" stroke="#8e5322" stroke-width="1.4" stroke-linecap="round" stroke-linejoin="round"/><path d="M236.812,130.75472c1.486,-0.226 4.557,-0.69 6.258,-0.733c4.603,-0.193 9.03,1.137 9.03,1.137l11.857,-9.243l-0.636,18.42c-0.666,-0.744 11.217,11.488 5.376,23.029c-5.933,11.646 -20.061,17.769 -38.502,15.728c-18.439,-2.041 -23.617,-12.135 -22.889,-17.717c0.728,-5.582 7.425,-8.263 7.425,-8.263c0,0 -0.266,-4.294 2.372,-9.835c1.619,-3.352 7.406,-8.462 7.406,-8.462l1.84,-11.398l7.769,6.362z" fill="none" stroke="#8e5322" stroke-width="1.4" stroke-linecap="round" stroke-linejoin="round"/><path d="M279.942,157.61672c0,0 -3.9,0.975 -5.695,1.132c-1.798,0.16 -5.332,0.172 -5.332,0.172" fill="none" stroke="#8e5322" stroke-width="1.4" stroke-linecap="round" stroke-linejoin="round"/><path d="M268.393,155.05872c0,0 1.951,-2.089 5.203,-4.315c3.609,-2.49 5.701,-3.281 5.701,-3.281" fill="none" stroke="#8e5322" stroke-width="1.4" stroke-linecap="round" stroke-linejoin="round"/><path d="M228.869,137.65472c2.833,1.465 3.158,6.458 0.733,10.979c-2.417,4.622 -6.72,7.098 -9.564,5.533c-2.832,-1.463 -3.157,-6.455 -0.735,-10.977c2.425,-4.524 6.728,-6.998 9.566,-5.535z" fill="#ffffff" stroke="#8e5322" stroke-width="1.4" stroke-linecap="round" stroke-linejoin="round"/><path d="M219.526,147.85072c0.214,-1.022 1.057,-1.697 2.072,-1.582c1.022,0.214 1.605,1.167 1.39,2.188c-0.204,1.123 -1.149,1.808 -2.071,1.582c-1.023,-0.212 -1.607,-1.166 -1.391,-2.188" fill="#414142" stroke="none" stroke-width="1" stroke-linecap="butt" stroke-linejoin="miter"/><path d="M253.198,139.29472c3.366,1.819 4.106,6.976 1.683,11.498c-2.416,4.62 -7.145,6.83 -10.514,5.012c-3.366,-1.821 -4.109,-6.977 -1.685,-11.5c2.428,-4.522 7.155,-6.732 10.516,-5.01z" fill="#ffffff" stroke="#8e5322" stroke-width="1.4" stroke-linecap="round" stroke-linejoin="round"/><path d="M243.128,149.24872c-0.092,-1.096 0.637,-1.962 1.533,-2.037c0.896,-0.078 1.772,0.751 1.856,1.747c0.093,1.097 -0.537,1.951 -1.533,2.037c-0.896,0.078 -1.772,-0.751 -1.856,-1.747" fill="#414142" stroke="none" stroke-width="1" stroke-linecap="butt" stroke-linejoin="miter"/><path d="M237.11,155.42072c0.225,1.486 -3.05,4.275 -5.051,4.344c-1.801,0.055 -3.676,-3.1 -3.744,-3.894c0.136,-1.92 2.537,-0.821 4.25,-0.766c1.512,0.073 4.316,-1.17 4.545,0.316z" fill="#5f4b43" stroke="#8e5322" stroke-width="1.4" stroke-linecap="round" stroke-linejoin="round"/><path d="M242.942,169.67672c0,0 -2.294,2.504 -7.769,1.866" fill="#ffffff" stroke="#8e5322" stroke-width="1.4" stroke-linecap="round" stroke-linejoin="round"/><path d="M259.652,173.63572c0.239,-0.928 7.336,-5.783 7.598,-6.582c2.707,-8.276 6.646,-10.813 8.043,-10.141c3.263,1.529 3.539,5.685 -0.074,11.699c-2.698,4.491 -12.327,10.798 -12.828,11.518" fill="#faa51f" stroke="#8e5322" stroke-width="1.4" stroke-linecap="round" stroke-linejoin="round"/></g></g></svg>