<svg version="1.1" xmlns="http://www.w3.org/2000/svg" xmlns:xlink="http://www.w3.org/1999/xlink" width="84.372" height="101.087" viewBox="0,0,84.372,101.087"><g transform="translate(-197.814,-118.78983)"><g data-paper-data="{&quot;isPaintingLayer&quot;:true}" fill-rule="nonzero" stroke-miterlimit="10" stroke-dasharray="" stroke-dashoffset="0" style="mix-blend-mode: normal"><g stroke="#8e5322" stroke-width="1.4" stroke-linecap="round" stroke-linejoin="round"><g><path d="M247.57053,177.48375c0.16375,0.27053 15.39247,-5.28788 15.33908,-5.07074c-0.55668,1.88948 -1.3611,4.22462 -1.86798,4.975c-2.35141,3.38243 -7.48007,6.63465 -12.65007,7.62009l-1.42101,-0.02702" fill="#faa51f"/><path d="M254.0782,174.61665" fill="#faa51f"/><path d="M250.47798,174.83673" fill="none"/><path d="M254.0782,174.61665l-4.27507,2.40287" fill="#faa51f"/></g><path d="M250.6375,176.81019c-1.09351,0.51404 3.91698,-2.44486 4.34767,-3.26003c0.36592,-0.73899 0.8692,-2.41133 0.86562,-3.33327c-0.42159,-5.21558 3.23625,-7.35573 4.76762,-6.84105c3.84373,1.03718 3.90722,6.21077 0.28228,14.02356" fill="#faa51f"/></g><path d="M233.689,182.77383c0.909,-0.391 2.542,-1.247 4.089,2.706c1.545,3.953 -1.883,10.122 -2.364,10.79c-1.669,2.564 -3.912,5.762 -7.55,8.403c-10.391,7.699 -21.54,0.024 -21.062,-4.415c0.478,-4.44 8.3,-1.105 15.614,-2.711c3.304,-0.726 5.661,-2.587 7.442,-4.353c2.577,-2.416 3.015,-9.994 3.831,-10.42z" fill="#faa51f" stroke="none" stroke-width="1" stroke-linecap="butt" stroke-linejoin="miter"/><path d="M212.314,198.04083c3.009,0.016 8.432,-0.084 8.432,-0.084c0,0 -2.931,3.03 -2.649,5.834c0.28,2.805 4.942,3.263 3.16,3.953c-1.819,0.243 -4.754,0.58 -8.264,-0.605c-3.473,-1.278 -6.802,-5.079 -6.21,-7.104c0.815,-2.045 2.782,-2.119 5.531,-1.994z" fill="#ffffff" stroke="none" stroke-width="1" stroke-linecap="butt" stroke-linejoin="miter"/><path d="M233.689,182.77383c0.909,-0.391 2.542,-1.247 4.089,2.706c1.545,3.953 -1.883,10.122 -2.364,10.79c-1.669,2.564 -3.912,5.762 -7.55,8.403c-10.391,7.699 -21.54,0.024 -21.062,-4.415c0.478,-4.44 8.3,-1.105 15.614,-2.711c3.304,-0.726 5.661,-2.587 7.442,-4.353c2.577,-2.416 3.015,-9.994 3.831,-10.42z" fill="none" stroke="#8e5322" stroke-width="1.4" stroke-linecap="round" stroke-linejoin="round"/><path d="M250.058,189.55383c0,0 3.15,1.101 5.101,3.712c-0.001,2.119 -1.928,4.899 -3.873,8.219c-0.909,3.702 7.183,1.849 4.385,8.717c-0.85,1.932 -9.521,-1.146 -11.264,-2.564c-1.585,-1.262 -1.84,-2.084 -0.928,-3.889c1.488,-2.937 2.915,-5.979 3.179,-8.895c-2,-1.588 -3.949,-1.588 -3.949,-1.588" fill="#faa51f" stroke="#8e5322" stroke-width="1.4" stroke-linecap="round" stroke-linejoin="round"/><path d="M249.355,201.93683c1.518,0.185 2.69,0.784 2.69,0.784" fill="#faa51f" stroke="#8e5322" stroke-width="1.4" stroke-linecap="round" stroke-linejoin="round"/><path d="M249.77,181.79983c0,6.7 1.701,16.5 -10.199,16.5c-11.9,0 -10.801,-9 -10.801,-15.7c0,-6.7 4.1,-8.5 10.801,-8.5c6.699,0 10.199,1 10.199,7.7z" fill="#faa51f" stroke="#8e5322" stroke-width="1.4" stroke-linecap="round" stroke-linejoin="round"/><path d="M240.15,197.09183c-3.676,5.628 -2.616,12.224 -4.753,13.195c-12.227,2.76 -1.74,8.559 -9.831,8.89c-2.499,-0.077 -3.042,-5.891 -3.28,-8.025c-0.52,-4.646 0.947,-3.331 7.905,-6.055c0.377,-1.389 -0.369,-9.898 -0.369,-9.898" fill="#faa51f" stroke="#8e5322" stroke-width="1.4" stroke-linecap="round" stroke-linejoin="round"/><path d="M230.465,212.20083c-0.577,0.071 -2.084,0.795 -2.716,0.847" fill="#faa51f" stroke="#8e5322" stroke-width="1.4" stroke-linecap="round" stroke-linejoin="round"/><path d="M247.17,184.69883c0,4.2 0.9,10.5 -5.5,10.5c-6.4,0 -5.9,-5.699 -5.9,-9.899c0,-4.2 2.201,-5.4 5.9,-5.4c3.699,0 5.5,0.6 5.5,4.799z" fill="#ffffff" stroke="none" stroke-width="1" stroke-linecap="butt" stroke-linejoin="miter"/><path d="M246.845,128.29383l7.967,-6.114l1.475,11.451c0,0 5.624,5.291 7.139,8.689c2.461,5.626 2.06,9.908 2.06,9.908c0,0 6.609,2.888 7.16,8.491c0.552,5.601 -4.942,15.53 -23.437,16.987c-18.497,1.457 -32.426,-5.111 -37.985,-16.938c-5.473,-11.717 6.79,-23.571 6.1,-22.846l-0.054,-18.432l11.56,9.612c0,0 4.468,-1.188 9.061,-0.851c1.699,0.099 4.754,0.659 6.233,0.932z" fill="#faa51f" stroke="none" stroke-width="1" stroke-linecap="butt" stroke-linejoin="miter"/><path d="M265.03,152.67683c0,0 6.368,2.356 6.921,7.959c0.849,5.638 -5.229,15.397 -22.672,16.473c-3.955,0.242 -7.513,0.53 -12.976,-0.111c-8.453,-0.891 -17.072,-7.238 -15.085,-18.18c1.143,-6.31 9.129,-4.871 9.129,-4.871l7.261,-0.961c0,0 6.866,2.416 11.141,2.012c4.277,-0.406 4.662,-3.683 4.662,-3.683l9.041,-1.559l2.151,2.266z" fill="#ffffff" stroke="none" stroke-width="1" stroke-linecap="butt" stroke-linejoin="miter"/><path d="M269.786,159.44083c0,0 2.264,-0.818 5.015,-0.69c2.338,0.073 6.685,1.052 6.685,1.052" fill="none" stroke="#8e5322" stroke-width="1.4" stroke-linecap="round" stroke-linejoin="round"/><path d="M269.237,164.64483c0,0 1.749,0.479 4.146,1.754c2.529,1.219 4.54,3.2 4.54,3.2" fill="none" stroke="#8e5322" stroke-width="1.4" stroke-linecap="round" stroke-linejoin="round"/><path d="M226.721,127.34483l4.744,4.18" fill="none" stroke="#8e5322" stroke-width="1.4" stroke-linecap="round" stroke-linejoin="round"/><path d="M246.845,128.29383l7.967,-6.114l1.475,11.451c0,0 5.624,5.291 7.139,8.689c2.461,5.626 2.06,9.908 2.06,9.908c0,0 6.609,2.888 7.16,8.491c0.552,5.601 -4.942,15.53 -23.437,16.987c-18.497,1.457 -32.426,-5.111 -37.985,-16.938c-5.473,-11.717 6.79,-23.571 6.1,-22.846l-0.054,-18.432l11.56,9.612c0,0 4.468,-1.188 9.061,-0.851c1.699,0.099 4.754,0.659 6.233,0.932z" fill="none" stroke="#8e5322" stroke-width="1.4" stroke-linecap="round" stroke-linejoin="round"/><path d="M200.172,159.07283c0,0 3.376,-1.05 5.137,-1.432c1.762,-0.386 5.774,-0.625 5.774,-0.625" fill="none" stroke="#8e5322" stroke-width="1.4" stroke-linecap="round" stroke-linejoin="round"/><path d="M198.514,150.16883c0,0 2.223,-0.258 6.574,0.303c3.909,0.483 6.604,1.442 6.604,1.442" fill="none" stroke="#8e5322" stroke-width="1.4" stroke-linecap="round" stroke-linejoin="round"/><path d="M261.228,142.16283c2.281,4.597 1.798,9.574 -1.081,10.948c-2.892,1.474 -7.117,-1.136 -9.385,-5.832c-2.28,-4.597 -1.798,-9.574 1.081,-10.948c2.881,-1.375 7.106,1.235 9.385,5.832z" fill="#ffffff" stroke="#8e5322" stroke-width="1.4" stroke-linecap="round" stroke-linejoin="round"/><path d="M260.71,145.72683c0.182,1.028 -0.431,1.963 -1.459,2.145c-0.93,0.194 -1.853,-0.519 -2.023,-1.646c-0.181,-1.027 0.433,-1.963 1.461,-2.144c1.017,-0.084 1.839,0.616 2.021,1.645" fill="#414142" stroke="none" stroke-width="1" stroke-linecap="butt" stroke-linejoin="miter"/><path d="M237.826,142.54083c2.279,4.596 1.377,9.726 -2.047,11.439c-3.422,1.713 -8.079,-0.646 -10.347,-5.342c-2.281,-4.597 -1.377,-9.727 2.045,-11.439c3.41,-1.613 8.067,0.745 10.349,5.342z" fill="#ffffff" stroke="#8e5322" stroke-width="1.4" stroke-linecap="round" stroke-linejoin="round"/><path d="M237.073,146.37883c-0.116,0.994 -1.015,1.794 -1.908,1.689c-0.993,-0.117 -1.597,-0.993 -1.469,-2.085c0.116,-0.993 1.017,-1.794 1.911,-1.689c0.894,0.104 1.594,0.992 1.466,2.085" fill="#414142" stroke="none" stroke-width="1" stroke-linecap="butt" stroke-linejoin="miter"/><path d="M247.598,153.65383c1.711,-0.001 4.147,-1.024 4.224,0.897c-0.094,0.795 -2.066,3.887 -3.865,3.775c-1.998,-0.133 -5.183,-3.023 -4.909,-4.501c0.273,-1.477 3.037,-0.146 4.55,-0.171z" fill="#5f4b43" stroke="#8e5322" stroke-width="1.4" stroke-linecap="round" stroke-linejoin="round"/><path d="M244.472,170.00083c-5.489,0.465 -7.705,-2.111 -7.705,-2.111" fill="#ffffff" stroke="#8e5322" stroke-width="1.4" stroke-linecap="round" stroke-linejoin="round"/><path d="M229.22291,185.30984c-0.23892,-0.82031 -7.60731,-9.67 -8.80061,-14.77157c-1.67115,-6.7422 -0.18608,-10.60025 3.39465,-11.15555c1.52018,-0.138 4.51558,3.36593 4.6841,12.10616c0.01887,0.86003 4.05332,5.08533 3.99212,6.00525" data-paper-data="{&quot;index&quot;:null}" fill="#faa51f" stroke="#8e5322" stroke-width="1.4" stroke-linecap="round" stroke-linejoin="round"/></g></g></svg>