<svg version="1.1" xmlns="http://www.w3.org/2000/svg" xmlns:xlink="http://www.w3.org/1999/xlink" width="90.13846" height="92.3" viewBox="0,0,90.13846,92.3"><g transform="translate(-205.16154,-119.6)"><g data-paper-data="{&quot;isPaintingLayer&quot;:true}" fill-rule="nonzero" stroke-miterlimit="10" stroke-dasharray="" stroke-dashoffset="0" style="mix-blend-mode: normal"><g fill="#faa51f" stroke="#8e5322" stroke-width="1.4" stroke-linecap="round" stroke-linejoin="round"><path d="M241,196.9c-8.6,-0.2 -16.8,6.2 -18.8,5.1c-2.8,-2.7 -5.7,5.1 -9.9,-1.3c-1.4,-2.1 4.9,-6.4 6.9,-7.4c1.9,-0.9 3.2,-0.5 4.3,1.3c1.3,-0.5 10.8,-6.5 10.8,-6.5"/><path d="M222,201.9c-1.1,-1 -1.7,-2.5 -1.7,-2.5"/></g><g stroke="#8e5322" stroke-width="1.4" stroke-linecap="round" stroke-linejoin="round"><g><path d="M244.7,177.9c-0.1,0.3 14,8.3 13.8,8.4c-1.8,0.8 -4.1,1.7 -5,1.8c-4.1,0.4 -9.9,-1.4 -14,-4.7l-0.9,-1.1" fill="#faa51f"/><path d="M251.1,181" fill="#faa51f"/><path d="M248.6,178.4" fill="none"/><path d="M246.5,179.3l4.6,1.7" fill="#faa51f"/></g><path d="M247.2,179.8c-1.1,-0.5 4.4,1.4 5.3,1.2c0.8,-0.2 2.4,-0.9 3.1,-1.5c3.7,-3.7 7.7,-2.3 8.3,-0.8c1.7,3.6 -2.2,7 -10.5,9.3" fill="#faa51f"/></g><g><path d="M238.7,186.9c0.9,0.4 2.7,0.9 1,4.8c-1.7,3.9 -8.5,5.9 -9.3,6c-3,0.6 -6.9,1.3 -11.3,0.6c-12.8,-1.9 -15.3,-15.2 -11.8,-18c3.5,-2.8 6.7,5.1 13,9.1c2.8,1.9 5.8,2.2 8.3,2.2c3.6,0.1 9.2,-4.9 10.1,-4.7z" fill="#faa51f" stroke="none" stroke-width="1" stroke-linecap="butt" stroke-linejoin="miter"/><path d="M212.7,182.7c2.1,2.2 6,5.9 6,5.9c0,0 -4.2,0.1 -6,2.3c-1.7,2.2 1.3,5.8 -0.5,5c-1.4,-1.2 -3.7,-3 -5.4,-6.3c-1.6,-3.3 -1.2,-8.4 0.6,-9.4c2,-0.8 3.5,0.5 5.3,2.5z" fill="#ffffff" stroke="none" stroke-width="1" stroke-linecap="butt" stroke-linejoin="miter"/><path d="M238.7,186.9c0.9,0.4 2.7,0.9 1,4.8c-1.7,3.9 -8.5,5.9 -9.3,6c-3,0.6 -6.9,1.3 -11.3,0.6c-12.8,-1.9 -15.3,-15.2 -11.8,-18c3.5,-2.8 6.7,5.1 13,9.1c2.8,1.9 5.8,2.2 8.3,2.2c3.6,0.1 9.2,-4.9 10.1,-4.7z" fill="none" stroke="#8e5322" stroke-width="1.4" stroke-linecap="round" stroke-linejoin="round"/></g><path d="M240.5,189.6" fill="#faa51f" stroke="#8e5322" stroke-width="1.4" stroke-linecap="round" stroke-linejoin="round"/><path d="M252.6,183.9c-1.9,6.4 -3.4,16.2 -12.4,13.6c-9.1,-2.7 -5.7,-11 -3.8,-17.5c1.9,-6.4 5.5,-7.2 10.6,-5.7c5.1,1.5 7.5,3.2 5.6,9.6z" fill="#faa51f" stroke="#8e5322" stroke-width="1.2473" stroke-linecap="round" stroke-linejoin="round"/><path d="M251.4,186.5c-1.2,4 0,4.4 -3.4,3.6c-6.2,-1.4 -5.7,-2 -4.5,-6.1c1.2,-4 4.2,-5.8 7.2,-3.5c1.7,1.4 1.9,2 0.7,6z" fill="#ffffff" stroke="none" stroke-width="1" stroke-linecap="butt" stroke-linejoin="miter"/><g fill="#faa51f" stroke="#8e5322" stroke-width="1.4" stroke-linecap="round" stroke-linejoin="round"><path d="M250.3,189.6c0,0 3.3,6.3 9.6,12.5c2.7,2.7 5.3,-5.2 9.7,0.8c1.2,1.7 -5.9,7.5 -8,8.3c-1.9,0.7 -2.7,0.5 -3.8,-1.2c-3.9,-6.3 -15.2,-12.3 -15.2,-12.3"/><path d="M260.5,204c1,-1.2 2.1,-1.9 2.1,-1.9"/></g><g stroke="#8e5322" stroke-width="1.4" stroke-linecap="round" stroke-linejoin="round"><g><path d="M238.1,181.9c0,-0.3 -15.1,-6.1 -14.9,-6.2c1.7,-1.1 3.8,-2.3 4.7,-2.5c4,-1 10,-0.1 14.5,2.5l2.1,1.9" fill="#faa51f"/><path d="M231.3,179.7" fill="#faa51f"/><path d="M234.1,181.9" fill="none"/><path d="M231.3,179.7l4.8,1" fill="#faa51f"/></g><path d="M235.4,180.3c1.4,0.4 -6.2,-1.1 -8.3,1.5c-3.3,4.1 -7.2,3.4 -8.1,2c-2.2,-3.3 1.2,-7.3 9,-10.8" fill="#faa51f"/></g><g><g><path d="M261.3,129.4l8,-6.1l1.4,11.5c0,0 5.6,5.3 7.1,8.7c2.4,5.6 2,9.9 2,9.9c0,0 6.6,2.9 7.1,8.5c0.6,5.6 -5,15.5 -23.5,16.8c-18.6,1.4 -32.4,-5.3 -38,-17.2c-5.4,-11.7 6.9,-23.5 6.2,-22.8l0.1,-18.4l11.5,9.7c0,0 4.5,-1.2 9.1,-0.8c1.7,0.1 4.7,0.7 6.2,1z" fill="#faa51f" stroke="none" stroke-width="1" stroke-linecap="butt" stroke-linejoin="miter"/><path d="M279.3,153.8c0,0 6.4,2.4 6.9,8c0.8,5.6 -5.3,15.3 -22.8,16.3c-4,0.2 -7.5,0.5 -13,-0.2c-8.5,-1 -17,-7.4 -15,-18.3c1.2,-6.3 9.2,-4.8 9.2,-4.8l7.3,-0.9c0,0 6.8,2.5 11.1,2.1c4.3,-0.4 4.7,-3.7 4.7,-3.7l9.1,-1.5l2.1,2.3z" fill="#ffffff" stroke="none" stroke-width="1" stroke-linecap="butt" stroke-linejoin="miter"/><path d="M294.6,156.5c0,0 -2,1.3 -4.7,1.9c-2.2,0.5 -6.7,0.7 -6.7,0.7" fill="none" stroke="#8e5322" stroke-width="1.4" stroke-linecap="round" stroke-linejoin="round"/><path d="M292.7,167.5c0,0 -1.9,0 -4.5,-0.6c-2.8,-0.6 -5.2,-2 -5.2,-2" fill="none" stroke="#8e5322" stroke-width="1.4" stroke-linecap="round" stroke-linejoin="round"/><path d="M241.2,128.2l4.7,4.2" fill="none" stroke="#8e5322" stroke-width="1.4" stroke-linecap="round" stroke-linejoin="round"/><path d="M261.3,129.4l8,-6.1l1.4,11.5c0,0 5.6,5.3 7.1,8.7c2.4,5.6 2,9.9 2,9.9c0,0 6.6,2.9 7.1,8.5c0.6,5.6 -5,15.5 -23.5,16.8c-18.6,1.4 -32.4,-5.3 -38,-17.2c-5.4,-11.7 6.9,-23.5 6.2,-22.8l0.1,-18.4l11.5,9.7c0,0 4.5,-1.2 9.1,-0.8c1.7,0.1 4.7,0.7 6.2,1z" fill="none" stroke="#8e5322" stroke-width="1.4" stroke-linecap="round" stroke-linejoin="round"/><path d="M225.4,157.1c0,0 -3.5,0 -5.3,-0.1c-1.8,-0.1 -5.7,-1 -5.7,-1" fill="none" stroke="#8e5322" stroke-width="1.4" stroke-linecap="round" stroke-linejoin="round"/><path d="M214.7,146.4c0,0 2.2,0.6 5.9,2.9c3.4,2 5.5,4 5.5,4" fill="none" stroke="#8e5322" stroke-width="1.4" stroke-linecap="round" stroke-linejoin="round"/></g><g><path d="M275.6,143.2c2.3,4.6 1.7,9.6 -1.1,10.9c-2.9,1.5 -7.1,-1.2 -9.4,-5.9c-2.3,-4.6 -1.7,-9.6 1.1,-10.9c2.9,-1.3 7.1,1.3 9.4,5.9z" fill="#ffffff" stroke="#8e5322" stroke-width="1.4" stroke-linecap="round" stroke-linejoin="round"/><path d="M275,146.8c0.2,1 -0.4,2 -1.5,2.1c-0.9,0.2 -1.8,-0.5 -2,-1.7c-0.2,-1 0.4,-2 1.5,-2.1c1,0 1.9,0.7 2,1.7" fill="#414142" stroke="none" stroke-width="1" stroke-linecap="butt" stroke-linejoin="miter"/></g><g><path d="M252.2,143.5c2.3,4.6 1.3,9.7 -2.1,11.4c-3.4,1.7 -8.1,-0.7 -10.3,-5.4c-2.3,-4.6 -1.3,-9.7 2.1,-11.4c3.4,-1.6 8,0.8 10.3,5.4z" fill="#ffffff" stroke="#8e5322" stroke-width="1.4" stroke-linecap="round" stroke-linejoin="round"/><path d="M251.4,147.3c-0.1,1 -1,1.8 -1.9,1.7c-1,-0.1 -1.6,-1 -1.5,-2.1c0.1,-1 1,-1.8 1.9,-1.7c0.9,0.1 1.6,1 1.5,2.1" fill="#414142" stroke="none" stroke-width="1" stroke-linecap="butt" stroke-linejoin="miter"/></g><path d="M261.9,154.7c1.7,0 4.2,-1 4.2,0.9c-0.1,0.8 -2.1,3.9 -3.9,3.8c-2,-0.1 -5.2,-3.1 -4.9,-4.5c0.3,-1.6 3.1,-0.2 4.6,-0.2z" fill="#5f4b43" stroke="#8e5322" stroke-width="1.4" stroke-linecap="round" stroke-linejoin="round"/><path d="M258.7,171c-5.5,0.4 -7.7,-2.2 -7.7,-2.2" fill="#ffffff" stroke="#8e5322" stroke-width="1.4" stroke-linecap="round" stroke-linejoin="round"/></g></g></g></svg>