<svg version="1.1" xmlns="http://www.w3.org/2000/svg" xmlns:xlink="http://www.w3.org/1999/xlink" width="89.4354" height="97.61269" viewBox="0,0,89.4354,97.61269"><g transform="translate(-204.9646,-121.3)"><g data-paper-data="{&quot;isPaintingLayer&quot;:true}" fill-rule="nonzero" stroke-miterlimit="10" stroke-dasharray="" stroke-dashoffset="0" style="mix-blend-mode: normal"><path d="M248.7,182c-0.1,-1 3.7,-5.4 3.7,-6.2c-0.3,-8.7 2.5,-12.4 4.1,-12.3c3.6,0.3 5.3,4.1 3.9,11c-1,5.1 -7.9,14.4 -8.1,15.2" fill="#faa51f" stroke="#8e5322" stroke-width="1.4" stroke-linecap="round" stroke-linejoin="round"/><g fill="#faa51f" stroke="#8e5322" stroke-width="1.4" stroke-linecap="round" stroke-linejoin="round"><path d="M241.4,201.1c-9.6,1.1 -12,6.7 -14.2,5.8c-8.2,-6.6 -5.9,4.8 -11.8,-0.8c-1.6,-1.9 1.4,-5.6 2.8,-7.3c3,-3.6 2.4,-2.4 9.2,0.7c1.2,-0.6 5.1,-4.9 5.1,-4.9"/><path d="M223.9,204.7c-0.5,-0.4 -2,-0.9 -2.5,-1.4"/></g><g><path d="M232.7,190.8c0.5,0.8 1.6,2.3 -2.1,4.4c-3.7,2.1 -10.3,-0.5 -11,-0.9c-2.7,-1.4 -6.2,-3.1 -9.3,-6.4c-9,-9.3 -2.9,-21.4 1.6,-21.5c4.5,-0.1 2.2,8.1 4.8,15.1c1.2,3.2 3.3,5.3 5.3,6.8c2.8,2.2 10.3,1.6 10.7,2.5z" fill="#faa51f" stroke="none" stroke-width="1" stroke-linecap="butt" stroke-linejoin="miter"/><path d="M214.8,171.5c0.4,2.9 1.2,8.3 1.2,8.3c0,0 -3.4,-2.5 -6.1,-1.8c-2.7,0.7 -2.6,5.4 -3.5,3.7c-0.5,-1.8 -1.2,-4.7 -0.5,-8.3c0.8,-3.6 4.1,-7.4 6.2,-7.1c2.2,0.6 2.5,2.5 2.7,5.2z" fill="#ffffff" stroke="none" stroke-width="1" stroke-linecap="butt" stroke-linejoin="miter"/><path d="M232.7,190.8c0.5,0.8 1.6,2.3 -2.1,4.4c-3.7,2.1 -10.3,-0.5 -11,-0.9c-2.7,-1.4 -6.2,-3.1 -9.3,-6.4c-9,-9.3 -2.9,-21.4 1.6,-21.5c4.5,-0.1 2.2,8.1 4.8,15.1c1.2,3.2 3.3,5.3 5.3,6.8c2.8,2.2 10.3,1.6 10.7,2.5z" fill="none" stroke="#8e5322" stroke-width="1.4" stroke-linecap="round" stroke-linejoin="round"/></g><path d="M240.3,193.5" fill="#faa51f" stroke="#8e5322" stroke-width="1.4" stroke-linecap="round" stroke-linejoin="round"/><path d="M252.4,187.8c-1.9,6.4 -3.2,16.3 -13.5,13.2c-10.4,-3 -6.9,-11.4 -5,-17.8c1.9,-6.4 6,-7.1 11.8,-5.4c5.8,1.8 8.6,3.6 6.7,10z" fill="#faa51f" stroke="#8e5322" stroke-width="1.333" stroke-linecap="round" stroke-linejoin="round"/><path d="M251.2,190.3c-1.2,4 -2.9,7.8 -4.8,6.2c-4.1,-3.3 -4.1,-4.8 -2.9,-8.9c1.2,-4 3.8,-5 7.2,-3.5c2.2,1 1.7,2.1 0.5,6.2z" fill="#ffffff" stroke="none" stroke-width="1" stroke-linecap="butt" stroke-linejoin="miter"/><g fill="#faa51f" stroke="#8e5322" stroke-width="1.4" stroke-linecap="round" stroke-linejoin="round"><path d="M250.3,195.8c0,0 -1.8,0.6 -2.1,3.1c-0.3,2.3 0.9,6.3 2.4,10.3c1.3,3.6 7,-2.4 8.5,4.9c0.4,2.1 -8.6,4.3 -10.8,4.1c-2,-0.2 -2.7,-0.7 -2.9,-2.7c-0.8,-7.3 -9.5,-17.1 -9.5,-17.1"/><path d="M250.2,211.2c1.4,-0.7 2.7,-0.8 2.7,-0.8"/></g><g><g><path d="M262.2,132.6l8.3,-5.6l0.8,11.5c0,0 5.3,5.6 6.6,9.1c2.2,5.7 1.5,10 1.5,10c0,0 6.4,3.3 6.6,8.9c0.2,5.7 -5.9,15.2 -24.4,15.6c-18.6,0.3 -32.1,-7.1 -36.9,-19.3c-4.8,-12 8.1,-23.1 7.4,-22.4l1,-18.4l11,10.3c0,0 4.5,-0.9 9.1,-0.3c1.7,0.2 4.7,0.9 6.2,1.3z" fill="#faa51f" stroke="none" stroke-width="1" stroke-linecap="butt" stroke-linejoin="miter"/><path d="M278.9,157.8c0,0 6.2,2.8 6.4,8.4c0.5,5.7 -6.1,15.1 -23.6,15.1c-3.9,0 -7.5,0.1 -12.9,-0.9c-8.4,-1.3 -16.6,-8.2 -14,-19c1.5,-6.2 9.4,-4.3 9.4,-4.3l7.3,-0.5c0,0 6.7,2.9 11,2.7c4.3,-0.2 4.9,-3.4 4.9,-3.4l9.1,-1l2,2.4z" fill="#ffffff" stroke="none" stroke-width="1" stroke-linecap="butt" stroke-linejoin="miter"/><path d="M293.7,160.7c0,0 -1.9,1.4 -4.6,2c-2.3,0.6 -6.7,0.8 -6.7,0.8" fill="none" stroke="#8e5322" stroke-width="1.4" stroke-linecap="round" stroke-linejoin="round"/><path d="M291.7,171.4c0,0 -1.8,0.1 -4.5,-0.4c-2.8,-0.4 -5.3,-1.7 -5.3,-1.7" fill="none" stroke="#8e5322" stroke-width="1.4" stroke-linecap="round" stroke-linejoin="round"/><path d="M242.1,130.5l4.5,4.5" fill="none" stroke="#8e5322" stroke-width="1.4" stroke-linecap="round" stroke-linejoin="round"/><path d="M262.2,132.6l8.3,-5.6l0.8,11.5c0,0 5.3,5.6 6.6,9.1c2.2,5.7 1.5,10 1.5,10c0,0 6.4,3.3 6.6,8.9c0.2,5.7 -5.9,15.2 -24.4,15.6c-18.6,0.3 -32.1,-7.1 -36.9,-19.3c-4.8,-12 8.1,-23.1 7.4,-22.4l1,-18.4l11,10.3c0,0 4.5,-0.9 9.1,-0.3c1.7,0.2 4.7,0.9 6.2,1.3z" fill="none" stroke="#8e5322" stroke-width="1.4" stroke-linecap="round" stroke-linejoin="round"/><path d="M224.9,158.5c0,0 -3.5,-0.4 -5.3,-0.7c-1.8,-0.3 -5.6,-1.6 -5.6,-1.6" fill="none" stroke="#8e5322" stroke-width="1.4" stroke-linecap="round" stroke-linejoin="round"/><path d="M215.5,146.1c0,0 2,1 5.4,3.8c3,2.5 4.8,4.8 4.8,4.8" fill="none" stroke="#8e5322" stroke-width="1.4" stroke-linecap="round" stroke-linejoin="round"/></g><g><path d="M275.7,147.3c2,4.7 1.2,9.7 -1.7,10.9c-3,1.3 -7,-1.6 -9,-6.4c-2,-4.7 -1.2,-9.7 1.7,-10.9c2.9,-1.2 7,1.7 9,6.4z" fill="#ffffff" stroke="#8e5322" stroke-width="1.4" stroke-linecap="round" stroke-linejoin="round"/><path d="M274,152.8c0.1,1 -0.5,1.9 -1.6,2.1c-0.9,0.1 -1.8,-0.6 -1.9,-1.8c-0.1,-1 0.5,-1.9 1.6,-2.1c0.9,0 1.7,0.8 1.9,1.8" fill="#414142" stroke="none" stroke-width="1" stroke-linecap="butt" stroke-linejoin="miter"/></g><g><path d="M252.3,146.3c2,4.7 0.8,9.8 -2.7,11.3c-3.5,1.5 -8,-1.1 -10,-5.9c-2,-4.7 -0.8,-9.8 2.7,-11.3c3.5,-1.5 8,1.2 10,5.9z" fill="#ffffff" stroke="#8e5322" stroke-width="1.4" stroke-linecap="round" stroke-linejoin="round"/><path d="M250.3,152.1c-0.2,1 -1.1,1.7 -2,1.6c-1,-0.2 -1.5,-1.1 -1.3,-2.2c0.2,-1 1.1,-1.7 2,-1.6c0.9,0.2 1.5,1.1 1.3,2.2" fill="#414142" stroke="none" stroke-width="1" stroke-linecap="butt" stroke-linejoin="miter"/></g><path d="M261.4,158c1.7,0.1 4.2,-0.8 4.2,1.1c-0.1,0.8 -2.3,3.8 -4.1,3.5c-2,-0.3 -5,-3.3 -4.6,-4.8c0.3,-1.4 3,0.1 4.5,0.2z" fill="#5f4b43" stroke="#8e5322" stroke-width="1.4" stroke-linecap="round" stroke-linejoin="round"/><path d="M257.3,174.1c-5.5,0.1 -7.6,-2.6 -7.6,-2.6" fill="#ffffff" stroke="#8e5322" stroke-width="1.4" stroke-linecap="round" stroke-linejoin="round"/></g><path d="M234.7,186.1c-0.2,-0.8 -7.1,-10.1 -8.1,-15.2c-1.4,-6.9 0.3,-10.7 3.9,-11c1.6,-0.1 4.4,3.6 4.1,12.3c0,0.8 3.8,5.2 3.7,6.2" fill="#faa51f" stroke="#8e5322" stroke-width="1.4" stroke-linecap="round" stroke-linejoin="round"/></g></g></svg>