<svg version="1.1" xmlns="http://www.w3.org/2000/svg" xmlns:xlink="http://www.w3.org/1999/xlink" width="91.16698" height="69.03409" viewBox="0,0,91.16698,69.03409"><g transform="translate(-195.27213,-150.10349)"><g data-paper-data="{&quot;isPaintingLayer&quot;:true}" fill-rule="nonzero" stroke-miterlimit="10" stroke-dasharray="" stroke-dashoffset="0" style="mix-blend-mode: normal"><g><path d="M258.75435,208.47407c0.88102,0.45144 2.58296,1.16461 0.52141,4.87624c-2.05965,3.71102 -8.99812,5.00236 -9.8209,5.05748c-3.03939,0.34948 -6.93223,0.65891 -11.2863,-0.45899c-12.5556,-3.0957 -13.75099,-16.58042 -10.02664,-19.04196c3.72466,-2.4606 6.1425,5.69073 12.04202,10.30193c2.66782,2.08287 5.60266,2.71271 8.09855,2.95872c3.5059,0.44573 9.62213,-4.04778 10.47186,-3.69342z" fill="#faa51f" stroke="none" stroke-width="1" stroke-linecap="butt" stroke-linejoin="miter"/><path d="M233.36387,201.74229c1.90515,2.3277 5.43903,6.44181 5.43903,6.44181c0,0 -4.20312,-0.32707 -6.18331,1.67829c-1.98081,2.00345 0.63729,5.88747 -1.02958,4.9539c-1.34723,-1.2457 -3.4778,-3.29164 -4.80317,-6.75083c-1.22955,-3.49113 -0.42227,-8.47949 1.51506,-9.31421c2.09387,-0.67506 3.40729,0.79168 5.06198,2.99104z" fill="#ffffff" stroke="none" stroke-width="1" stroke-linecap="butt" stroke-linejoin="miter"/><path d="M258.75435,208.47407c0.88102,0.45144 2.58296,1.16461 0.52141,4.87624c-2.05965,3.71102 -8.99812,5.00236 -9.8209,5.05748c-3.03939,0.34948 -6.93223,0.65891 -11.2863,-0.45899c-12.5556,-3.0957 -13.75099,-16.58042 -10.02664,-19.04196c3.72466,-2.4606 6.1425,5.69073 12.04202,10.30193c2.66782,2.08287 5.60266,2.71271 8.09855,2.95872c3.5059,0.44573 9.62213,-4.04778 10.47186,-3.69342z" fill="none" stroke="#8e5322" stroke-width="1.4" stroke-linecap="round" stroke-linejoin="round"/></g><path d="M255.75845,191.63399c6.21115,2.51229 15.93357,4.61101 11.47145,15.64276c-4.46212,11.03175 -12.39299,6.6373 -18.60415,4.12501c-6.21115,-2.51229 -6.34245,-6.98808 -3.83017,-13.19924c2.51229,-6.21115 4.75171,-9.08082 10.96286,-6.56853z" fill="#faa51f" stroke="#8e5322" stroke-width="1.4" stroke-linecap="round" stroke-linejoin="round"/><path d="M257.47101,195.13132c3.89356,1.57487 10.07137,3.10283 7.67157,9.03587c-2.39942,5.93211 -7.49512,3.33165 -11.38868,1.75679c-3.89356,-1.57487 -4.18107,-4.06431 -2.79407,-7.49342c1.38645,-3.43041 2.61855,-4.87373 6.51118,-3.29924z" fill="#ffffff" stroke="none" stroke-width="1" stroke-linecap="butt" stroke-linejoin="miter"/><g data-paper-data="{&quot;index&quot;:null}" stroke="#8e5322" stroke-width="1.4" stroke-linecap="round" stroke-linejoin="round"><g><path d="M251.57256,206.17623l-0.90083,2.68486c-2.65078,4.47028 -7.44179,8.19267 -11.41918,9.27915c-0.88267,0.26625 -3.30127,0.2481 -5.32215,0.12129c-0.22334,0.01072 10.10329,-12.4396 9.95641,-12.70118" fill="#faa51f"/><path d="M239.03472,210.80795" fill="#faa51f"/><path d="M240.39904,207.51877" fill="none"/><path d="M242.73045,207.5859l-3.69572,3.22205" fill="#faa51f"/></g><path d="M239.43766,218.26567c-8.51479,0.76712 -13.43781,-1.05599 -13.13523,-5.01055c0.0993,-1.66136 3.15716,-4.18118 8.04196,-2.22191c3.10405,1.23888 8.99642,-3.79003 7.97154,-2.75581" fill="#faa51f"/></g><g fill="#faa51f" stroke="#8e5322" stroke-width="1.4" stroke-linecap="round" stroke-linejoin="round"><path d="M266.53723,197.1355c6.84449,-6.80829 8.79715,-1.8166 9.10587,1.08766c0.33324,10.22883 7.10368,3.72797 4.83882,11.50938c-0.84695,2.30058 -5.6492,1.30636 -7.71641,0.8409c-4.57963,-0.97312 -1.442,-0.90034 -1.83597,-4.80096c-1.26117,0.50937 -4.91636,4.47543 -4.91636,4.47543"/><path d="M276.45172,204.85838c-0.04305,-1.44158 -0.48914,-3.37057 -0.38364,-4.48361"/><path d="M272.07318,203.18557c-0.09516,0.53004 -1.70553,2.35397 -2.39402,3.45668"/></g><g fill="#faa51f" stroke="#8e5322" stroke-width="1.4" stroke-linecap="round" stroke-linejoin="round"><path d="M261.7308,204.00314c0,0 6.1174,3.5913 14.71952,5.48962c3.73949,0.88103 1.728,-7.19819 8.66658,-4.50447c1.89736,0.80002 -1.01777,9.56369 -2.44103,11.31421c-1.26583,1.62716 -2.08057,1.88447 -3.89922,1.02277c-6.58967,-3.22122 -19.3741,-2.35038 -19.3741,-2.35038"/><path d="M277.99875,210.82028c0.18735,-1.54431 0.76181,-2.75675 0.76181,-2.75675"/></g><g><path d="M225.44802,160.31523l3.21974,-9.51174l7.5956,8.69408c0,0 7.61541,1.2707 10.76431,3.25263c5.17485,3.3063 7.22176,7.08801 7.22176,7.08801c0,0 7.09987,-1.27499 10.67407,3.07415c3.5742,4.34915 4.53069,15.65512 -10.02914,27.15186c-14.56072,11.49719 -29.79066,13.78813 -40.98948,7.05074c-11.06513,-6.69349 -7.46574,-23.36456 -7.63623,-22.37859l-10.29652,-15.28763l14.95231,1.55833c0,0 3.05224,-3.47207 7.05677,-5.74649c1.46683,-0.86313 4.31836,-2.09804 5.69917,-2.69248z" fill="#faa51f" stroke="none" stroke-width="1" stroke-linecap="butt" stroke-linejoin="miter"/><path d="M254.12253,170.46598c0,0 6.60411,-1.58294 10.17831,2.76621c3.84125,4.21246 4.21717,15.70326 -9.68031,26.29927c-3.1527,2.40009 -5.94933,4.61794 -10.84524,7.12395c-7.5213,3.96105 -18.21427,3.48147 -22.64872,-6.71831c-2.5609,-5.87885 4.87816,-9.12488 4.87816,-9.12488l5.50003,-4.83733c0,0 7.04874,-1.81164 10.37781,-4.52558c3.32862,-2.71483 1.82502,-5.65237 1.82502,-5.65237l6.64835,-6.32493l3.04766,0.68681z" fill="#ffffff" stroke="none" stroke-width="1" stroke-linecap="butt" stroke-linejoin="miter"/><path d="M268.28459,164.11573c0,0 -0.87239,2.24395 -2.77764,4.23022c-1.59474,1.71499 -5.19164,4.34246 -5.19164,4.34246" fill="none" stroke="#8e5322" stroke-width="1.4" stroke-linecap="round" stroke-linejoin="round"/><path d="M272.85274,174.35943c0,0 -1.51117,0.99818 -4.05177,1.96045c-2.58225,1.09819 -5.39833,1.30277 -5.39833,1.30277" fill="none" stroke="#8e5322" stroke-width="1.4" stroke-linecap="round" stroke-linejoin="round"/><path d="M208.19403,170.72066l6.26916,0.83529" fill="none" stroke="#8e5322" stroke-width="1.4" stroke-linecap="round" stroke-linejoin="round"/><path d="M225.44802,160.31523l3.21974,-9.51174l7.5956,8.69408c0,0 7.61541,1.2707 10.76431,3.25263c5.17485,3.3063 7.22176,7.08801 7.22176,7.08801c0,0 7.09987,-1.27499 10.67407,3.07415c3.5742,4.34915 4.53069,15.65512 -10.02914,27.15186c-14.56072,11.49719 -29.79066,13.78813 -40.98948,7.05074c-11.06513,-6.69349 -7.46574,-23.36456 -7.63623,-22.37859l-10.29652,-15.28763l14.95231,1.55833c0,0 3.05224,-3.47207 7.05677,-5.74649c1.46683,-0.86313 4.31836,-2.09804 5.69917,-2.69248z" fill="none" stroke="#8e5322" stroke-width="1.4" stroke-linecap="round" stroke-linejoin="round"/><path d="M211.31951,203.38303c0,0 -2.88777,2.03981 -4.4445,2.94898c-1.55674,0.90916 -5.29966,2.37563 -5.29966,2.37563" fill="none" stroke="#8e5322" stroke-width="1.4" stroke-linecap="round" stroke-linejoin="round"/><path d="M196.49046,200.527c0,0 2.14017,-0.64722 6.52143,-0.86658c3.93273,-0.21557 6.75469,0.24974 6.75469,0.24974" fill="none" stroke="#8e5322" stroke-width="1.4" stroke-linecap="round" stroke-linejoin="round"/><path d="M245.11532,163.8425c4.4517,2.55193 6.81801,6.95765 5.19004,9.70069c-1.5833,2.83252 -6.54589,3.01353 -11.04315,0.37259c-4.45259,-2.55148 -6.81891,-6.95719 -5.19004,-9.70069c1.62886,-2.7435 6.59144,-2.92452 11.04315,-0.37259z" fill="#ffffff" stroke="#8e5322" stroke-width="1.4" stroke-linecap="round" stroke-linejoin="round"/><path d="M247.68226,169.37804c0.72358,0.75301 0.73413,1.87101 -0.01934,2.59368c-0.66401,0.67802 -1.82801,0.59866 -2.5958,-0.24295c-0.72269,-0.75349 -0.73324,-1.87145 0.02022,-2.59414c0.79816,-0.63321 1.87222,-0.51008 2.59492,0.2434" fill="#414142" stroke="none" stroke-width="1" stroke-linecap="butt" stroke-linejoin="miter"/><path d="M225.8755,177.1719c4.4517,2.55193 6.55397,7.31748 4.66273,10.64576c-1.89169,3.32738 -7.07365,3.95771 -11.57048,1.31541c-4.45259,-2.55148 -6.55397,-7.31748 -4.66316,-10.64442c1.93771,-3.23747 7.11966,-3.8678 11.57092,-1.31677z" fill="#ffffff" stroke="#8e5322" stroke-width="1.4" stroke-linecap="round" stroke-linejoin="round"/><path d="M228.402,183.0674c0.45564,0.89017 0.15312,2.05493 -0.64803,2.46501c-0.89017,0.45564 -1.87779,0.06245 -2.37854,-0.91584c-0.45564,-0.89017 -0.15357,-2.05583 0.64757,-2.46591c0.80114,-0.41007 1.87733,-0.06333 2.37899,0.91674" fill="#414142" stroke="none" stroke-width="1" stroke-linecap="butt" stroke-linejoin="miter"/><path d="M240.17858,180.97344c1.42216,-0.95262 2.87721,-3.15779 4.00951,-1.60406c0.36497,0.71302 0.44431,4.37958 -1.11199,5.28741c-1.73432,1.00117 -5.98899,0.3705 -6.58343,-1.01032c-0.59444,-1.38081 2.44179,-1.81153 3.6859,-2.67303z" fill="#5f4b43" stroke="#8e5322" stroke-width="1.4" stroke-linecap="round" stroke-linejoin="round"/><path d="M246.67261,196.2965c-4.30435,3.44006 -7.57819,2.53087 -7.57819,2.53087" fill="#ffffff" stroke="#8e5322" stroke-width="1.4" stroke-linecap="round" stroke-linejoin="round"/></g></g></g></svg>