<svg version="1.1" xmlns="http://www.w3.org/2000/svg" xmlns:xlink="http://www.w3.org/1999/xlink" width="81.899" height="104.07143" viewBox="0,0,81.899,104.07143"><g transform="translate(-198.001,-122)"><g data-paper-data="{&quot;isPaintingLayer&quot;:true}" fill-rule="nonzero" stroke-miterlimit="10" stroke-dasharray="" stroke-dashoffset="0" style="mix-blend-mode: normal"><path d="M247.105,176.921l4.206,0.663c3.953,4.066 6.177,13.053 1.464,15.92c-0.342,0.209 -6.795,-0.998 -7.212,-0.858" fill="#faa51f" stroke="#8e5322" stroke-width="1.4" stroke-linecap="round" stroke-linejoin="round"/><path d="M255.23,188.851c-1.986,8.479 -5.61,11.841 -9.298,10.28c-1.573,-0.65 -2.562,-5.247 1.495,-9.507" fill="#faa51f" stroke="#8e5322" stroke-width="1.4" stroke-linecap="round" stroke-linejoin="round"/><path d="M236.6786,197.52033c0.41102,0.90059 1.3036,2.51568 -2.61572,4.14821c-3.91744,1.63323 -10.16079,-1.65776 -10.84034,-2.12489c-2.60079,-1.61119 -5.84617,-3.78318 -8.56794,-7.36082c-7.928,-10.21632 -0.50117,-21.53483 3.94698,-21.15541c4.4478,0.38036 1.28808,8.27378 3.05521,15.55011c0.80057,3.28857 2.71189,5.60305 4.51699,7.3442c2.47344,2.5243 10.05812,2.79357 10.50482,3.5986z" fill="#faa51f" stroke="none" stroke-width="1" stroke-linecap="butt" stroke-linejoin="miter"/><path d="M220.93873,176.4906c0.05049,3.00753 0.2704,8.42656 0.2704,8.42656c0,0 -3.09392,-2.86371 -5.89103,-2.51906c-2.79641,0.34277 -3.15208,5.01326 -3.88045,3.24705c-0.28403,-1.81277 -0.6861,-4.73912 0.42002,-8.27453c1.2011,-3.50102 4.92855,-6.91299 6.9659,-6.36602c2.0611,0.76932 2.18151,2.73449 2.11515,5.486z" fill="#ffffff" stroke="none" stroke-width="1" stroke-linecap="butt" stroke-linejoin="miter"/><path d="M236.6786,197.52033c0.41102,0.90059 1.3036,2.51568 -2.61572,4.14821c-3.91744,1.63323 -10.16079,-1.65776 -10.84034,-2.12489c-2.60079,-1.61119 -5.84617,-3.78318 -8.56794,-7.36082c-7.928,-10.21632 -0.50117,-21.53483 3.94698,-21.15541c4.4478,0.38036 1.28808,8.27378 3.05521,15.55011c0.80057,3.28857 2.71189,5.60305 4.51699,7.3442c2.47344,2.5243 10.05812,2.79357 10.50482,3.5986z" fill="none" stroke="#8e5322" stroke-width="1.4" stroke-linecap="round" stroke-linejoin="round"/><path d="M249.16566,194.31468c0,0 -2.34628,9.99188 -1.82898,18.81401c0.17797,3.80767 6.59669,7.97784 3.40829,11.60437c-3.40165,2.45216 -6.18922,-2.89009 -8.26252,-3.75603c-1.87657,-0.76059 -2.35387,-1.47626 -1.99087,-3.46563c1.33458,-7.26093 -1.5163,-18.95177 -1.5163,-18.95177" fill="#faa51f" stroke="#8e5322" stroke-width="1.4" stroke-linecap="round" stroke-linejoin="round"/><path d="M250.2,183.801c0,6.7 1.7,16.5 -10.2,16.5c-11.9,0 -10.8,-9 -10.8,-15.7c0,-6.7 4.1,-8.5 10.8,-8.5c6.7,0 10.2,1 10.2,7.7z" fill="#faa51f" stroke="#8e5322" stroke-width="1.4" stroke-linecap="round" stroke-linejoin="round"/><path d="M247.6,186.7c0,4.2 0.9,10.5 -5.5,10.5c-6.399,0 -5.899,-5.699 -5.899,-9.899c0,-4.2 2.2,-5.4 5.899,-5.4c3.7,-0.001 5.5,0.6 5.5,4.799z" fill="#ffffff" stroke="none" stroke-width="1" stroke-linecap="butt" stroke-linejoin="miter"/><path d="M230.90314,193.07684c0,0 1.74712,-1.1103 2.78308,-0.76636c1.55752,0.5171 3.07232,1.86304 3.12064,2.57963c0.07181,1.06506 0.54276,3.05335 -0.11191,3.94193c-1.05845,2.73826 -3.38119,5.7725 -4.87315,6.07022c2.23592,1.41949 -0.91884,5.73526 -3.05292,5.60979c-2.23104,-0.1499 -6.39937,-3.39706 -5.88524,-5.84566c0.66413,-0.81637 1.90658,-1.92727 2.90482,-2.57648c1.00011,-0.65042 2.31107,-0.28313 2.44033,-0.58585c1.7982,-4.30985 2.31014,-8.01386 2.39473,-10.54063c0.07474,-2.23282 -0.18422,-3.54637 -0.18422,-3.54637" fill="#faa51f" stroke="#8e5322" stroke-width="1.4" stroke-linecap="round" stroke-linejoin="round"/><path d="M229.83943,203.68559c0,0 1.69612,0.37045 2.30454,1.81615" fill="#faa51f" stroke="#8e5322" stroke-width="1.4" stroke-linecap="round" stroke-linejoin="round"/><path d="M230.72778,193.07322c-0.08469,-0.04745 -1.49169,1.6985 -3.4127,1.88047c-1.84437,0.17471 -4.20601,-1.21391 -4.27508,-1.27269c-3.335,-2.839 0.335,-12.898 6.86,-18.08l7.899,1.4" fill="#faa51f" stroke="#8e5322" stroke-width="1.4" stroke-linecap="round" stroke-linejoin="round"/><path d="M232.3,183.4c-1.165,3.135 -2.97089,8.37945 -2.97089,8.37945" fill="#faa51f" stroke="#8e5322" stroke-width="1.4" stroke-linecap="round" stroke-linejoin="round"/><path d="M228.364,190.2l1.199,0.301" fill="none" stroke="#8e5322" stroke-width="1.4" stroke-linecap="round" stroke-linejoin="round"/><path d="M242.8,129.7l7.2,-7l2.8,11.2c0,0 6.2,4.601 8.1,7.8c3.1,5.301 3.199,9.6 3.199,9.6c0,0 6.901,2.1 8.101,7.6c1.2,5.5 -3.1,16 -21.299,19.6c-18.2,3.6 -32.801,-1.3 -39.7,-12.4c-6.8,-11 4,-24.2 3.399,-23.4l-2.2,-18.3l12.6,8.2c0,0 4.299,-1.7 8.9,-1.9c1.699,-0.1 4.8,0.1 6.3,0.2z" fill="#faa51f" stroke="none" stroke-width="1" stroke-linecap="butt" stroke-linejoin="miter"/><path d="M263.7,151.801c0,0 6.6,1.6 7.8,7.1c1.5,5.5 -3.401,15.9 -20.6,19c-3.9,0.7 -7.4,1.4 -12.9,1.4c-8.5,0.099 -17.8,-5.2 -17.1,-16.3c0.399,-6.4 8.5,-5.9 8.5,-5.9l7.1,-1.8c0,0 7.1,1.599 11.3,0.7c4.2,-0.9 4.2,-4.2 4.2,-4.2l8.8,-2.601l2.4,2z" fill="#ffffff" stroke="none" stroke-width="1" stroke-linecap="butt" stroke-linejoin="miter"/><path d="M279.2,152.601c0,0 -1.799,1.6 -4.4,2.5c-2.201,0.8 -6.6,1.5 -6.6,1.5" fill="none" stroke="#8e5322" stroke-width="1.4" stroke-linecap="round" stroke-linejoin="round"/><path d="M278.599,163.801c0,0 -1.8,0.2 -4.5,-0.101c-2.799,-0.199 -5.399,-1.3 -5.399,-1.3" fill="none" stroke="#8e5322" stroke-width="1.4" stroke-linecap="round" stroke-linejoin="round"/><path d="M222.7,131.101l5.2,3.6" fill="none" stroke="#8e5322" stroke-width="1.4" stroke-linecap="round" stroke-linejoin="round"/><path d="M242.8,129.7l7.2,-7l2.8,11.2c0,0 6.2,4.601 8.1,7.8c3.1,5.301 3.199,9.6 3.199,9.6c0,0 6.901,2.1 8.101,7.6c1.2,5.5 -3.1,16 -21.299,19.6c-18.2,3.6 -32.801,-1.3 -39.7,-12.4c-6.8,-11 4,-24.2 3.399,-23.4l-2.2,-18.3l12.6,8.2c0,0 4.299,-1.7 8.9,-1.9c1.699,-0.1 4.8,0.1 6.3,0.2z" fill="none" stroke="#8e5322" stroke-width="1.4" stroke-linecap="round" stroke-linejoin="round"/><path d="M210.6,161.6c0,0 -3.5,0.5 -5.3,0.6c-1.8,0.1 -5.8,-0.3 -5.8,-0.3" fill="none" stroke="#8e5322" stroke-width="1.4" stroke-linecap="round" stroke-linejoin="round"/><path d="M198.701,152.301c0,0 2.2,0.399 6.2,2.2c3.599,1.6 5.899,3.3 5.899,3.3" fill="none" stroke="#8e5322" stroke-width="1.4" stroke-linecap="round" stroke-linejoin="round"/><path d="M258.7,141.801c2.8,4.3 2.899,9.3 0.2,11c-2.7,1.8 -7.2,-0.3 -10,-4.7c-2.801,-4.3 -2.9,-9.3 -0.2,-11c2.7,-1.7 7.2,0.4 10,4.7z" fill="#ffffff" stroke="#8e5322" stroke-width="1.4" stroke-linecap="round" stroke-linejoin="round"/><path d="M258.6,145.4c0.301,1 -0.199,2 -1.199,2.3c-0.9,0.301 -1.9,-0.3 -2.2,-1.399c-0.3,-1 0.2,-2 1.2,-2.3c0.999,-0.2 1.899,0.399 2.199,1.399" fill="#414142" stroke="none" stroke-width="1" stroke-linecap="butt" stroke-linejoin="miter"/><path d="M235.5,144.9c2.8,4.3 2.5,9.5 -0.7,11.601c-3.2,2.1 -8.1,0.3 -10.899,-4.101c-2.801,-4.3 -2.5,-9.5 0.699,-11.6c3.2,-1.999 8.1,-0.199 10.9,4.1z" fill="#ffffff" stroke="#8e5322" stroke-width="1.4" stroke-linecap="round" stroke-linejoin="round"/><path d="M235.2,148.801c0,1 -0.8,1.899 -1.7,1.899c-1,0 -1.7,-0.8 -1.7,-1.899c0,-1 0.8,-1.9 1.7,-1.9c0.9,0 1.7,0.799 1.7,1.9" fill="#414142" stroke="none" stroke-width="1" stroke-linecap="butt" stroke-linejoin="miter"/><path d="M246.5,154.801c1.7,-0.2 4,-1.5 4.3,0.399c0,0.801 -1.6,4.101 -3.399,4.2c-2,0.101 -5.5,-2.399 -5.4,-3.899c0.1,-1.5 2.999,-0.5 4.499,-0.7z" fill="#5f4b43" stroke="#8e5322" stroke-width="1.4" stroke-linecap="round" stroke-linejoin="round"/><path d="M245.299,171.4c-5.399,1.101 -7.899,-1.2 -7.899,-1.2" fill="#ffffff" stroke="#8e5322" stroke-width="1.4" stroke-linecap="round" stroke-linejoin="round"/><path d="M229.27006,193.79118c2.6951,5.22804 0.12876,8.69693 -1.5636,8.87678c-3.97911,0.45913 -6.51048,-3.78362 -6.03128,-12.48034" fill="#faa51f" stroke="#8e5322" stroke-width="1.4" stroke-linecap="round" stroke-linejoin="round"/></g></g></svg>