<svg version="1.1" xmlns="http://www.w3.org/2000/svg" xmlns:xlink="http://www.w3.org/1999/xlink" width="669.66967" height="310.32532" viewBox="0,0,669.66967,310.32532"><g transform="translate(102.81848,-100.51316)"><g data-paper-data="{&quot;isPaintingLayer&quot;:true}" fill-rule="nonzero" stroke-linejoin="miter" stroke-miterlimit="10" stroke-dasharray="" stroke-dashoffset="0" style="mix-blend-mode: normal"><g fill="#059600" stroke="none" stroke-width="0" stroke-linecap="butt"><g><path d="M185.94895,205.43579c0,-29.85157 24.19949,-54.05105 54.05106,-54.05105c29.85157,0 54.05105,24.19948 54.05105,54.05105c0,29.85157 -24.19948,54.05105 -54.05105,54.05105c-29.85157,0 -54.05106,-24.19948 -54.05106,-54.05105z"/><path d="M282.9229,159.33343c0,32.48553 -18.14961,58.82026 -40.53829,58.82026c-22.38868,0 -40.53829,-26.33473 -40.53829,-58.82026c0,-32.48553 18.14961,-58.82027 40.53829,-58.82027c22.38868,0 40.53829,26.33473 40.53829,58.82027z"/></g><path d="M207.70115,195.82246c0,-17.55975 14.23499,-31.79474 31.79474,-31.79474c17.55975,0 31.79474,14.23499 31.79474,31.79474c0,17.55975 -14.23499,31.79474 -31.79474,31.79474c-17.55975,0 -31.79474,-14.23499 -31.79474,-31.79474z"/></g><g><g stroke="none" stroke-width="0" stroke-linecap="butt"><g fill="#08c700"><path d="M188.94895,204.02403c0,-28.19471 22.85634,-51.05105 51.05105,-51.05105c28.19471,0 51.05105,22.85634 51.05105,51.05105c0,28.19472 -22.85634,51.05105 -51.05105,51.05105c-28.19471,0 -51.05105,-22.85633 -51.05105,-51.05105z"/><path d="M280.54054,160.48048c0,30.68249 -17.14225,55.55556 -38.28829,55.55556c-21.14604,0 -38.28829,-24.87307 -38.28829,-55.55556c0,-30.68248 17.14225,-55.55556 38.28829,-55.55556c21.14604,0 38.28829,24.87308 38.28829,55.55556z"/></g><path d="M209.49383,194.94427c0,-16.58513 13.4449,-30.03003 30.03003,-30.03003c16.58513,0 30.03003,13.4449 30.03003,30.03003c0,16.58513 -13.4449,30.03003 -30.03003,30.03003c-16.58513,0 -30.03003,-13.4449 -30.03003,-30.03003z" fill="#a30000"/></g><g><g><path d="M215.78466,149.75387c0,-3.93503 3.18997,-7.125 7.125,-7.125c3.93503,0 7.125,3.18997 7.125,7.125c0,3.93503 -3.18997,7.125 -7.125,7.125c-3.93503,0 -7.125,-3.18997 -7.125,-7.125z" fill="#000000" stroke="none" stroke-width="0" stroke-linecap="butt"/><path d="M233.03466,152.12887l-18.25,-16" fill="none" stroke="#000000" stroke-width="6" stroke-linecap="round"/></g><g data-paper-data="{&quot;index&quot;:null}"><path d="M257.74299,157.79554c-3.93503,0 -7.125,-3.18997 -7.125,-7.125c0,-3.93503 3.18997,-7.125 7.125,-7.125c3.93503,0 7.125,3.18997 7.125,7.125c0,3.93503 -3.18997,7.125 -7.125,7.125z" fill="#000000" stroke="none" stroke-width="0" stroke-linecap="butt"/><path d="M265.86799,137.04554l-18.25,16" fill="none" stroke="#000000" stroke-width="6" stroke-linecap="round"/></g></g></g><path d="M-102.81848,410.83848v-172.67267h669.66967v172.67267z" data-paper-data="{&quot;index&quot;:null}" fill="#9966ff" stroke="none" stroke-width="0" stroke-linecap="butt"/><path d="M-36.68935,147.09077v-24.54655h139.08709v24.54655z" data-paper-data="{&quot;index&quot;:null}" fill="#08c700" stroke="none" stroke-width="0" stroke-linecap="butt"/><path d="M-25.68935,239.07876v-97.03304h48.08709v97.03304z" data-paper-data="{&quot;index&quot;:null}" fill="#08c700" stroke="none" stroke-width="0" stroke-linecap="butt"/></g></g></svg>